HIERARCHY
ROOT Hips
{
	OFFSET 0.000000 100.481300 0.000000
	CHANNELS 6 Xposition Yposition Zposition Xrotation Yrotation Zrotation 
	JOINT Spine
	{
		OFFSET -0.279200 12.230698 -2.892100
		CHANNELS 3 Xrotation Yrotation Zrotation
		JOINT Spine1
		{
			OFFSET -0.232667 10.192268 -1.242267
			CHANNELS 3 Xrotation Yrotation Zrotation
			JOINT Spine1_split
			{
				OFFSET -0.232667 10.192268 -1.242267
				CHANNELS 3 Xrotation Yrotation Zrotation
				JOINT Spine2
				{
					OFFSET -0.232667 10.192268 -1.242267
					CHANNELS 3 Xrotation Yrotation Zrotation
					JOINT Neck
					{
						OFFSET -0.418800 17.814194 8.416900
						CHANNELS 3 Xrotation Yrotation Zrotation
						JOINT Head
						{
							OFFSET 0.000000 7.031097 3.806800
							CHANNELS 3 Xrotation Yrotation Zrotation
							JOINT HeadTop_End
							{
								OFFSET 0.000000 24.646606 12.978600
								CHANNELS 3 Xrotation Yrotation Zrotation
								End Site
								{
									OFFSET 0.000000 0.000000 0.000000
								}
							}
						}
					}
					JOINT LeftShoulder
					{
						OFFSET 8.476499 7.247704 -3.868750
						CHANNELS 3 Xrotation Yrotation Zrotation
						JOINT LeftShoulder_split
						{
							OFFSET 8.476499 7.247704 -3.868750
							CHANNELS 3 Xrotation Yrotation Zrotation
							JOINT LeftArm
							{
								OFFSET 9.308998 -2.777710 0.208600
								CHANNELS 3 Xrotation Yrotation Zrotation
								JOINT LeftForeArm
								{
									OFFSET 29.972298 0.000000 0.000000
									CHANNELS 3 Xrotation Yrotation Zrotation
									JOINT LeftHand
									{
										OFFSET 26.026505 0.000000 0.000000
										CHANNELS 3 Xrotation Yrotation Zrotation
										JOINT LeftHandThumb1
										{
											OFFSET 12.240501 -7.147949 9.207150
											CHANNELS 3 Xrotation Yrotation Zrotation
											JOINT LeftHandThumb2
											{
												OFFSET 4.138618 -2.389435 2.389433
												CHANNELS 3 Xrotation Yrotation Zrotation
												JOINT LeftHandThumb3
												{
													OFFSET 2.726913 -1.574387 1.574386
													CHANNELS 3 Xrotation Yrotation Zrotation
													JOINT LeftHandThumb4
													{
														OFFSET 3.941010 -2.275345 2.275342
														CHANNELS 3 Xrotation Yrotation Zrotation
														End Site
														{
															OFFSET 0.000000 0.000000 0.000000
														}
													}
												}
											}
										}
										JOINT LeftHandIndex1
										{
											OFFSET 24.424698 -1.985611 5.953459
											CHANNELS 3 Xrotation Yrotation Zrotation
											JOINT LeftHandIndex2
											{
												OFFSET 6.426697 0.000000 0.000000
												CHANNELS 3 Xrotation Yrotation Zrotation
												JOINT LeftHandIndex3
												{
													OFFSET 5.337898 0.000000 0.000000
													CHANNELS 3 Xrotation Yrotation Zrotation
													JOINT LeftHandIndex4
													{
														OFFSET 4.409401 0.000000 0.000000
														CHANNELS 3 Xrotation Yrotation Zrotation
														End Site
														{
															OFFSET 0.000000 0.000000 0.000000
														}
													}
												}
											}
										}
										JOINT LeftHandMiddle1
										{
											OFFSET 23.810104 0.000000 0.000000
											CHANNELS 3 Xrotation Yrotation Zrotation
											JOINT LeftHandMiddle2
											{
												OFFSET 7.176498 0.000000 0.000000
												CHANNELS 3 Xrotation Yrotation Zrotation
												JOINT LeftHandMiddle3
												{
													OFFSET 6.774902 0.000000 0.000000
													CHANNELS 3 Xrotation Yrotation Zrotation
													JOINT LeftHandMiddle4
													{
														OFFSET 5.403328 0.000000 0.000000
														CHANNELS 3 Xrotation Yrotation Zrotation
														End Site
														{
															OFFSET 0.000000 0.000000 0.000000
														}
													}
												}
											}
										}
										JOINT LeftHandRing1
										{
											OFFSET 22.908401 -0.839279 -6.020567
											CHANNELS 3 Xrotation Yrotation Zrotation
											JOINT LeftHandRing2
											{
												OFFSET 6.337502 0.000000 0.000000
												CHANNELS 3 Xrotation Yrotation Zrotation
												JOINT LeftHandRing3
												{
													OFFSET 5.779297 0.000000 0.000000
													CHANNELS 3 Xrotation Yrotation Zrotation
													JOINT LeftHandRing4
													{
														OFFSET 4.965698 0.000000 0.000000
														CHANNELS 3 Xrotation Yrotation Zrotation
														End Site
														{
															OFFSET 0.000000 0.000000 0.000000
														}
													}
												}
											}
										}
										JOINT LeftHandPinky1
										{
											OFFSET 20.037003 -1.530319 -10.950146
											CHANNELS 3 Xrotation Yrotation Zrotation
											JOINT LeftHandPinky2
											{
												OFFSET 5.254700 0.000000 0.000000
												CHANNELS 3 Xrotation Yrotation Zrotation
												JOINT LeftHandPinky3
												{
													OFFSET 4.810204 0.000000 0.000000
													CHANNELS 3 Xrotation Yrotation Zrotation
													JOINT LeftHandPinky4
													{
														OFFSET 3.647202 0.000000 0.000000
														CHANNELS 3 Xrotation Yrotation Zrotation
														End Site
														{
															OFFSET 0.000000 0.000000 0.000000
														}
													}
												}
											}
										}
									}
								}
							}
						}
					}
					JOINT RightShoulder
					{
						OFFSET -7.570500 7.247704 -3.868750
						CHANNELS 3 Xrotation Yrotation Zrotation
						JOINT RightShoulder_split
						{
							OFFSET -7.570500 7.247704 -3.868750
							CHANNELS 3 Xrotation Yrotation Zrotation
							JOINT RightArm
							{
								OFFSET -9.308998 -2.777710 0.208500
								CHANNELS 3 Xrotation Yrotation Zrotation
								JOINT RightForeArm
								{
									OFFSET -29.972300 0.000000 0.000000
									CHANNELS 3 Xrotation Yrotation Zrotation
									JOINT RightHand
									{
										OFFSET -26.026505 0.000000 0.000000
										CHANNELS 3 Xrotation Yrotation Zrotation
										JOINT RightHandThumb1
										{
											OFFSET -12.240601 -7.148026 9.207092
											CHANNELS 3 Xrotation Yrotation Zrotation
											JOINT RightHandThumb2
											{
												OFFSET -4.138618 -2.389435 2.389433
												CHANNELS 3 Xrotation Yrotation Zrotation
												JOINT RightHandThumb3
												{
													OFFSET -2.726974 -1.574417 1.574421
													CHANNELS 3 Xrotation Yrotation Zrotation
													JOINT RightHandThumb4
													{
														OFFSET -3.941010 -2.275345 2.275343
														CHANNELS 3 Xrotation Yrotation Zrotation
														End Site
														{
															OFFSET 0.000000 0.000000 0.000000
														}
													}
												}
											}
										}
										JOINT RightHandIndex1
										{
											OFFSET -24.424698 -1.985657 5.953444
											CHANNELS 3 Xrotation Yrotation Zrotation
											JOINT RightHandIndex2
											{
												OFFSET -6.426697 0.000000 0.000000
												CHANNELS 3 Xrotation Yrotation Zrotation
												JOINT RightHandIndex3
												{
													OFFSET -5.337898 0.000000 0.000000
													CHANNELS 3 Xrotation Yrotation Zrotation
													JOINT RightHandIndex4
													{
														OFFSET -4.409401 0.000000 0.000000
														CHANNELS 3 Xrotation Yrotation Zrotation
														End Site
														{
															OFFSET 0.000000 0.000000 0.000000
														}
													}
												}
											}
										}
										JOINT RightHandMiddle1
										{
											OFFSET -23.810097 0.000000 0.000000
											CHANNELS 3 Xrotation Yrotation Zrotation
											JOINT RightHandMiddle2
											{
												OFFSET -7.176498 0.000000 0.000000
												CHANNELS 3 Xrotation Yrotation Zrotation
												JOINT RightHandMiddle3
												{
													OFFSET -6.774902 0.000000 0.000000
													CHANNELS 3 Xrotation Yrotation Zrotation
													JOINT RightHandMiddle4
													{
														OFFSET -5.403328 0.000000 0.000000
														CHANNELS 3 Xrotation Yrotation Zrotation
														End Site
														{
															OFFSET 0.000000 0.000000 0.000000
														}
													}
												}
											}
										}
										JOINT RightHandRing1
										{
											OFFSET -22.908302 -0.839325 -6.020576
											CHANNELS 3 Xrotation Yrotation Zrotation
											JOINT RightHandRing2
											{
												OFFSET -6.337502 0.000000 0.000000
												CHANNELS 3 Xrotation Yrotation Zrotation
												JOINT RightHandRing3
												{
													OFFSET -5.779297 0.000000 0.000000
													CHANNELS 3 Xrotation Yrotation Zrotation
													JOINT RightHandRing4
													{
														OFFSET -4.965698 0.000000 0.000000
														CHANNELS 3 Xrotation Yrotation Zrotation
														End Site
														{
															OFFSET 0.000000 0.000000 0.000000
														}
													}
												}
											}
										}
										JOINT RightHandPinky1
										{
											OFFSET -20.037003 -1.530334 -10.950259
											CHANNELS 3 Xrotation Yrotation Zrotation
											JOINT RightHandPinky2
											{
												OFFSET -5.254700 0.000000 0.000000
												CHANNELS 3 Xrotation Yrotation Zrotation
												JOINT RightHandPinky3
												{
													OFFSET -4.810204 0.000000 0.000000
													CHANNELS 3 Xrotation Yrotation Zrotation
													JOINT RightHandPinky4
													{
														OFFSET -3.647202 0.000000 0.000000
														CHANNELS 3 Xrotation Yrotation Zrotation
														End Site
														{
															OFFSET 0.000000 0.000000 0.000000
														}
													}
												}
											}
										}
									}
								}
							}
						}
					}
				}
			}
		}
	}
	JOINT LeftUpLeg
	{
		OFFSET 15.427100 -6.655098 0.678600
		CHANNELS 3 Xrotation Yrotation Zrotation
		JOINT LeftLeg
		{
			OFFSET 4.081073 -39.591068 13.024000
			CHANNELS 3 Xrotation Yrotation Zrotation
			JOINT LeftFoot
			{
				OFFSET -4.081074 -37.707932 -15.979700
				CHANNELS 3 Xrotation Yrotation Zrotation
				JOINT LeftToeBase
				{
					OFFSET 5.346399 -15.068900 20.645000
					CHANNELS 3 Xrotation Yrotation Zrotation
					JOINT LeftToe_End
					{
						OFFSET 2.754700 0.931300 11.300900
						CHANNELS 3 Xrotation Yrotation Zrotation
						End Site
						{
							OFFSET 0.000000 0.000000 0.000000
						}
					}
				}
			}
		}
	}
	JOINT RightUpLeg
	{
		OFFSET -15.569500 -6.655098 0.678600
		CHANNELS 3 Xrotation Yrotation Zrotation
		JOINT RightLeg
		{
			OFFSET -4.081825 -39.591045 13.023800
			CHANNELS 3 Xrotation Yrotation Zrotation
			JOINT RightFoot
			{
				OFFSET 4.081824 -37.707954 -15.979600
				CHANNELS 3 Xrotation Yrotation Zrotation
				JOINT RightToeBase
				{
					OFFSET -5.346400 -15.068900 20.645000
					CHANNELS 3 Xrotation Yrotation Zrotation
					JOINT RightToe_End
					{
						OFFSET -2.754700 0.931300 11.300900
						CHANNELS 3 Xrotation Yrotation Zrotation
						End Site
						{
							OFFSET 0.000000 0.000000 0.000000
						}
					}
				}
			}
		}
	}
}
MOTION
Frames: 5
Frame Time: 0.016667
-0.003761 74.367508 -0.357181 11.754900 -49.677687 11.771109 10.994342 2.942145 -2.515402 6.100713 5.566545 -4.284699 0.000000 0.000000 0.000000 -5.786926 6.328137 -3.046186 2.317274 9.363495 -0.265711 -4.145195 23.161798 -3.522663 -0.000000 -0.000000 0.000000 -1.915084 -16.511771 -2.939005 0.000000 0.000000 0.000000 -10.486664 2.625034 -45.366338 -22.934648 -26.042294 -16.052427 2.486696 -2.421335 6.911732 18.458422 -9.511665 13.216061 -1.151043 11.255598 -8.390539 5.706536 8.483138 -0.820710 0.000003 -0.000001 -0.000000 -1.232390 -5.767190 -0.192358 0.133064 -0.208739 -4.601628 0.055726 -0.448163 -7.568173 -0.000001 0.000004 -0.000004 1.879050 4.660581 -4.596713 0.488050 -1.011725 -12.986316 0.650653 -1.351207 -16.553665 -0.000004 0.000000 0.000000 3.021273 7.938965 -14.102989 -0.721426 -0.564644 -18.895746 -0.741452 -0.701377 -22.058560 0.000002 0.000002 0.000001 2.009215 6.305991 -22.386382 -0.833142 -0.206648 -16.746499 -2.250904 0.030649 -34.673824 -0.000003 0.000002 -0.000001 -5.102372 24.651549 1.530439 0.000000 0.000000 0.000000 6.852342 -35.149963 57.689239 -21.079524 44.888929 20.017013 -0.116046 35.721217 7.538552 55.149560 18.649589 -29.698301 -0.442563 -14.180528 7.313135 21.666974 -29.244507 9.142382 0.000000 0.000001 -0.000000 5.673376 7.585030 36.844171 1.050471 3.824481 68.900237 0.499574 3.026042 62.196454 -0.000000 0.000002 -0.000000 -0.125670 1.886101 45.000759 -1.169016 3.204647 68.417636 -0.936402 1.813606 41.107569 -0.000000 -0.000000 0.000002 -5.311999 1.216653 58.508821 -0.745225 1.667581 48.011298 -0.816490 1.840597 53.666569 -0.000000 -0.000001 -0.000000 -7.756832 -9.376448 47.264001 -0.526019 1.541558 45.600518 -0.508172 0.803472 24.986610 -0.000000 0.000000 -0.000000 -67.586832 25.164049 42.947389 43.281632 -19.356515 3.336877 8.268007 0.637987 -12.352311 -0.968987 -6.109474 0.599870 0.000000 0.000001 -0.000000 -29.726920 0.632016 -30.302954 49.963674 5.852285 -4.864572 -26.772076 -5.250693 27.155275 0.528308 2.970128 1.471365 -0.000000 0.000001 -0.000000 
0.222822 74.560867 -0.516428 11.792737 -49.555474 11.607585 10.678121 2.975136 -2.201496 6.270521 5.497044 -4.598447 0.000000 0.000000 0.000000 -5.595390 6.320223 -3.336132 2.640489 9.509905 -0.611379 -4.329301 23.155526 -3.472937 -0.000000 0.000000 -0.000000 -1.910406 -16.163871 -3.090431 0.000000 0.000000 0.000000 -12.030264 0.880578 -45.319183 -21.770900 -23.471154 -14.157637 2.477834 -3.270584 5.936768 18.463956 -9.514420 13.212505 -1.112724 11.306121 -8.396348 5.706533 8.483133 -0.820705 0.000001 -0.000002 0.000001 -1.232417 -5.775701 -0.415002 0.131540 -0.226371 -4.993302 0.069758 -0.457807 -7.578648 -0.000001 -0.000003 0.000000 1.878194 4.643274 -4.856711 0.484487 -1.023649 -13.186619 0.645935 -1.363658 -16.754020 0.000000 0.000000 -0.000001 3.018627 7.917227 -14.361907 -0.723412 -0.572772 -19.096341 -0.743941 -0.709387 -22.259066 0.000002 -0.000000 0.000001 2.005588 6.286215 -22.645480 -0.834515 -0.216343 -16.947004 -2.254440 0.022128 -34.874270 0.000001 -0.000003 -0.000000 -5.012411 24.293286 1.216169 0.000000 0.000000 0.000000 6.254663 -34.836458 57.425601 -21.507388 44.701139 20.437190 -0.231537 33.998421 6.851897 55.149563 18.649587 -29.698298 -0.442564 -14.180535 7.313132 21.666972 -29.244507 9.142382 -0.000001 0.000000 -0.000001 5.673374 7.585030 36.844171 1.050469 3.824479 68.900237 0.499576 3.026043 62.196461 -0.000001 -0.000000 0.000000 -0.125674 1.886099 45.000759 -1.169016 3.204647 68.417636 -0.936404 1.813607 41.107565 -0.000001 0.000000 0.000000 -5.312002 1.216650 58.508814 -0.745225 1.667583 48.011302 -0.816490 1.840597 53.666569 0.000001 0.000001 -0.000002 -7.756832 -9.376451 47.264004 -0.526019 1.541560 45.600522 -0.508174 0.803471 24.986610 -0.000003 -0.000000 -0.000000 -67.765087 25.159111 42.813074 42.910807 -19.438934 3.314551 8.662532 0.652644 -12.166626 -0.969104 -6.109480 0.599766 0.000000 0.000002 -0.000000 -29.729546 0.596423 -29.966133 49.673165 5.600639 -4.955229 -26.538545 -5.398561 27.236086 0.626268 3.137387 1.326306 -0.000000 0.000002 0.000000 
0.438508 74.752426 -0.763771 11.631395 -49.501581 11.532035 10.796717 2.884526 -2.371298 6.253142 5.455824 -4.730131 0.000000 0.000000 0.000000 -5.604864 6.319124 -3.448269 2.918538 9.797429 -0.772800 -4.285424 23.230973 -3.582199 0.000002 0.000000 -0.000000 -1.950320 -16.377031 -3.316428 0.000000 0.000000 0.000000 -12.793725 0.478088 -45.036181 -20.515371 -22.352262 -13.137833 2.462310 -3.387143 5.660599 18.481151 -9.516274 13.200806 -1.002061 11.451889 -8.413319 5.706537 8.483133 -0.820702 -0.000001 0.000002 -0.000002 -1.232760 -5.800257 -1.059706 0.126479 -0.277059 -6.121589 0.110151 -0.485635 -7.608774 0.000003 0.000001 -0.000004 1.875559 4.593693 -5.610082 0.475099 -1.053477 -13.766690 0.633541 -1.394491 -17.334088 -0.000003 -0.000002 0.000002 3.010615 7.854304 -15.112308 -0.730629 -0.599779 -19.676424 -0.752827 -0.736482 -22.839227 0.000002 -0.000002 -0.000003 1.991107 6.229253 -23.395847 -0.839736 -0.247708 -17.526902 -2.266266 -0.004353 -35.454317 0.000002 0.000000 -0.000000 -4.920683 23.574268 1.114867 0.000000 0.000000 0.000000 5.639813 -34.678042 56.669677 -22.473141 45.269620 21.754028 0.157397 31.484010 5.855147 55.149560 18.649592 -29.698298 -0.442561 -14.180531 7.313133 21.666974 -29.244507 9.142382 0.000001 0.000001 0.000000 5.673377 7.585028 36.844171 1.050470 3.824481 68.900237 0.499575 3.026044 62.196454 -0.000003 0.000002 -0.000003 -0.125671 1.886100 45.000763 -1.169016 3.204651 68.417636 -0.936403 1.813608 41.107565 0.000000 0.000002 0.000001 -5.312001 1.216653 58.508821 -0.745225 1.667583 48.011302 -0.816489 1.840598 53.666569 0.000004 0.000000 -0.000001 -7.756835 -9.376450 47.264004 -0.526020 1.541560 45.600522 -0.508175 0.803471 24.986610 -0.000004 0.000001 -0.000002 -67.667237 25.411487 42.561938 42.369371 -19.592130 3.274610 9.134197 0.772443 -12.035632 -0.969135 -6.109459 0.599652 -0.000000 0.000001 0.000000 -29.797875 0.632330 -29.794340 49.568315 5.589008 -5.063167 -26.407429 -5.536384 27.126096 0.691036 3.168734 1.304237 -0.000000 -0.000000 -0.000000 
0.654180 74.940407 -1.056871 11.490587 -49.587580 11.499225 10.930010 2.752080 -2.553810 6.255488 5.389561 -4.873398 0.000000 0.000000 0.000000 -5.586803 6.304851 -3.562655 3.088686 10.429334 -1.660138 -4.392342 23.236807 -3.332446 0.000002 -0.000000 -0.000000 -2.019135 -15.755240 -4.014506 0.000000 0.000000 0.000000 -14.105704 -0.623453 -44.437641 -18.714599 -20.851312 -11.947950 2.441577 -3.378180 5.069724 18.508503 -9.519176 13.182188 -0.822723 11.681119 -8.439627 5.706540 8.483137 -0.820697 -0.000003 0.000001 0.000000 -1.233369 -5.834171 -2.091539 0.116404 -0.357561 -7.916955 0.174347 -0.529906 -7.656303 -0.000003 0.000004 -0.000002 1.870192 4.511113 -6.816992 0.462237 -1.098892 -14.694428 0.614968 -1.438400 -18.261919 -0.000002 0.000001 0.000001 2.992140 7.754490 -16.314018 -0.744039 -0.646162 -20.604034 -0.769983 -0.784664 -23.766678 -0.000004 0.000002 0.000003 1.966461 6.138863 -24.598161 -0.848857 -0.297639 -18.454244 -2.290206 -0.043194 -36.381870 -0.000001 0.000000 -0.000000 -4.713511 23.018403 0.781704 0.000000 0.000000 0.000000 5.134858 -34.583099 56.017028 -23.493904 45.872145 23.282978 0.566486 28.887356 4.638315 55.149556 18.649587 -29.698298 -0.442563 -14.180530 7.313134 21.666972 -29.244503 9.142384 0.000001 0.000001 -0.000000 5.673372 7.585030 36.844168 1.050469 3.824482 68.900237 0.499578 3.026045 62.196461 -0.000002 -0.000001 -0.000001 -0.125671 1.886098 45.000763 -1.169016 3.204651 68.417636 -0.936404 1.813606 41.107565 -0.000002 -0.000001 0.000001 -5.312003 1.216650 58.508821 -0.745224 1.667582 48.011298 -0.816492 1.840597 53.666569 -0.000000 -0.000002 -0.000002 -7.756837 -9.376449 47.264007 -0.526020 1.541560 45.600522 -0.508179 0.803469 24.986610 0.000001 0.000001 -0.000001 -67.492296 25.657959 42.376027 41.787159 -19.735319 3.225292 9.604619 0.977933 -11.992912 -0.969229 -6.109466 0.599634 -0.000000 0.000002 0.000000 -30.134204 0.520708 -29.663238 49.550372 5.793604 -5.174792 -26.291900 -5.579981 26.853666 1.092833 3.313965 1.212988 -0.000000 -0.000000 -0.000000 
0.852499 75.123337 -1.379570 11.551423 -50.139097 11.657016 10.992319 2.590646 -2.644804 6.354281 5.276293 -5.097355 0.000000 0.000000 0.000000 -5.456689 6.268696 -3.745261 3.317675 11.210765 -2.259809 -4.432832 23.483662 -3.578626 0.000001 0.000000 0.000000 -1.995286 -14.974992 -4.449682 0.000000 0.000000 0.000000 -15.399633 -1.800123 -44.184808 -16.719354 -18.848431 -10.461594 2.445833 -3.416967 4.703645 18.544997 -9.523128 13.157302 -0.583302 11.986405 -8.475811 5.706538 8.483135 -0.820704 -0.000001 0.000001 -0.000001 -1.235137 -5.876081 -3.475764 0.099069 -0.464193 -10.309391 0.259722 -0.589137 -7.719287 -0.000003 -0.000000 0.000000 1.861490 4.401145 -8.437936 0.444010 -1.159385 -15.937558 0.592200 -1.498050 -19.505343 0.000000 0.000001 0.000000 2.964561 7.622256 -17.927879 -0.763922 -0.709158 -21.846848 -0.794496 -0.848741 -25.009537 0.000001 -0.000000 -0.000002 1.930711 6.019437 -26.212893 -0.867936 -0.363445 -19.696818 -2.323354 -0.094515 -37.624842 0.000001 -0.000001 -0.000003 -4.584631 21.996491 0.859055 0.000000 0.000000 0.000000 3.917483 -34.011070 54.545792 -24.794657 47.064303 25.390615 1.270037 25.477661 3.269697 55.149563 18.649592 -29.698301 -0.442562 -14.180523 7.313135 21.666972 -29.244507 9.142383 0.000000 0.000001 0.000000 5.673376 7.585027 36.844171 1.050470 3.824481 68.900237 0.499580 3.026045 62.196461 0.000001 -0.000001 0.000000 -0.125667 1.886094 45.000759 -1.169016 3.204646 68.417636 -0.936404 1.813608 41.107558 -0.000006 0.000001 0.000001 -5.311998 1.216651 58.508821 -0.745226 1.667584 48.011298 -0.816488 1.840597 53.666569 0.000002 0.000001 -0.000000 -7.756831 -9.376450 47.264004 -0.526017 1.541554 45.600522 -0.508184 0.803465 24.986608 0.000001 0.000001 0.000000 -67.126983 25.824093 42.476905 41.193882 -19.637205 3.149847 9.909956 1.271385 -12.219030 -0.968862 -6.109454 0.600136 -0.000000 -0.000001 -0.000000 -30.722430 0.819196 -29.215810 49.614791 6.055034 -5.404966 -26.118766 -5.558245 26.533243 1.275887 3.411948 1.140807 0.000000 -0.000002 0.000000 
